<?xml version="1.0" encoding="UTF-8"?>
<svg version="1.1" xmlns="http://www.w3.org/2000/svg" width="1891" height="411">
<path d="M0 0 C1.09929036 0.00037972 2.19858071 0.00075944 3.3311829 0.00115067 C4.59416314 -0.00084038 5.85714339 -0.00283143 7.15839577 -0.00488281 C8.57820448 -0.00202922 9.998013 0.00091639 11.41782135 0.00394398 C12.91186232 0.00350841 14.40590322 0.00263377 15.89994371 0.00135481 C20.02506374 -0.00089294 24.15015806 0.00313494 28.27527481 0.00813287 C32.71633486 0.0124332 37.15739335 0.01099125 41.59845489 0.0102306 C49.29940713 0.0097051 57.00035092 0.01285463 64.70130104 0.01846844 C75.83571606 0.0265799 86.97012698 0.0291983 98.10454463 0.03045643 C116.16742284 0.03264751 134.23029654 0.0393091 152.2931723 0.04875904 C169.84427884 0.05793172 187.39538416 0.06501326 204.94649261 0.06926686 C206.02752229 0.06952958 207.10855196 0.0697923 208.22234011 0.07006299 C213.64530327 0.07136798 219.06826643 0.0726317 224.49122959 0.07387489 C269.5123727 0.08424924 314.53350748 0.10268847 359.55464691 0.1241985 C359.55464691 47.9741985 359.55464691 95.8241985 359.55464691 145.1241985 C420.93464691 145.1241985 482.31464691 145.1241985 545.55464691 145.1241985 C545.55464691 97.2741985 545.55464691 49.4241985 545.55464691 0.1241985 C602.49106431 -0.11822408 659.4269957 -0.32135881 716.36378136 -0.43752013 C723.08300315 -0.45124084 729.80222374 -0.46550293 736.52144378 -0.48004955 C737.19008724 -0.4814879 737.85873069 -0.48292625 738.54763607 -0.48440819 C760.22069731 -0.53128386 781.8934431 -0.61390841 803.56631323 -0.71507093 C826.46922474 -0.82178076 849.37201046 -0.88775804 872.27517503 -0.91077495 C885.99653568 -0.92588159 899.71699075 -0.97362229 913.43807268 -1.06288264 C922.84238357 -1.12095095 932.24622513 -1.13862039 941.65070236 -1.12431666 C947.0800293 -1.11725845 952.50777209 -1.12820639 957.93681854 -1.18706173 C962.9070825 -1.24055073 967.87469595 -1.24333184 972.84508133 -1.20568935 C974.64338084 -1.20103681 976.44184494 -1.21503676 978.23981988 -1.24951651 C991.67516921 -1.49219473 991.67516921 -1.49219473 996.34852928 2.52700037 C998.4084588 5.31192496 1000.01507433 8.02756507 1001.55464691 11.1241985 C1002.36192959 12.40918804 1003.17998671 13.68765936 1004.02022308 14.95134693 C1004.73653853 16.12692217 1005.44978391 17.30437301 1006.16011566 18.4835735 C1012.41283532 28.65839676 1019.15681452 38.49802373 1025.86714691 48.3741985 C1034.19905565 60.64694854 1042.44395501 72.96326097 1050.50215667 85.41765553 C1055.0636496 92.46394588 1059.7095829 99.45368121 1064.36714691 106.4366985 C1064.83542907 107.13965046 1065.30371124 107.84260243 1065.78618377 108.56685597 C1071.71840994 117.46713454 1077.72060257 126.30767055 1083.86714691 135.0616985 C1089.69527924 143.36770912 1095.35916204 151.76922053 1100.92964691 160.2491985 C1101.3013501 160.81194477 1101.67305328 161.37469105 1102.0560202 161.95449024 C1103.10994926 163.55210376 1104.15666201 165.15447064 1105.20308441 166.757011 C1105.80298187 167.67369557 1106.40287933 168.59038014 1107.0209555 169.53484303 C1108.48735646 172.01059096 1109.56911931 174.42571558 1110.55464691 177.1241985 C1111.21464691 177.1241985 1111.87464691 177.1241985 1112.55464691 177.1241985 C1112.95514251 175.80585011 1112.95514251 175.80585011 1113.36372894 174.46086842 C1114.50813722 171.25450763 1115.85102101 168.64332675 1117.60933441 165.73747975 C1118.52211151 164.2211797 1118.52211151 164.2211797 1119.45332855 162.67424732 C1120.10551361 161.60585621 1120.75769867 160.5374651 1121.42964691 159.4366985 C1122.10439056 158.32254566 1122.77913421 157.20839283 1123.47432464 156.06047779 C1128.88354204 147.15662378 1134.39909165 138.32361395 1140.00826019 129.54460865 C1142.26498419 126.01237598 1144.51393169 122.47520556 1146.76387542 118.93865162 C1147.95539106 117.06601465 1149.14728415 115.19361779 1150.33955902 113.32146412 C1155.60997832 105.04467377 1160.8522761 96.75033551 1166.08687347 88.45085865 C1168.57448048 84.50759605 1171.06471105 80.56599082 1173.55464691 76.6241985 C1174.55465915 75.0408729 1175.55465916 73.45753957 1176.55464691 71.8741985 C1178.55464691 68.70753183 1180.55464691 65.54086516 1182.55464691 62.3741985 C1183.04948578 61.5906902 1183.54432464 60.80718189 1184.05415863 59.99993092 C1185.05573726 58.41412525 1186.05736499 56.82835058 1187.05904144 55.2426067 C1189.53528875 51.32235092 1192.01072392 47.40158742 1194.48433441 43.47966725 C1197.50427048 38.69229391 1200.52884045 33.90786308 1203.55464691 29.1241985 C1204.15164398 28.17947682 1204.74864105 27.23475514 1205.36372894 26.26140553 C1207.2376738 23.2976074 1209.11457799 20.33570182 1210.99214691 17.3741985 C1211.57141937 16.45727223 1212.15069183 15.54034596 1212.747518 14.59563404 C1213.30133148 13.72334156 1213.85514496 12.85104908 1214.42574066 11.9523235 C1214.90970306 11.1882317 1215.39366546 10.4241399 1215.89229339 9.63689381 C1216.44087005 8.80770436 1216.98944671 7.9785149 1217.55464691 7.1241985 C1217.85312589 6.54790329 1218.15160486 5.97160809 1218.45912866 5.3778494 C1220.11856149 2.50971721 1221.38173078 0.48919748 1224.63536582 -0.52329903 C1227.29764921 -0.77006726 1229.88245639 -0.78882792 1232.55592579 -0.7371363 C1234.0866485 -0.74925167 1234.0866485 -0.74925167 1235.6482949 -0.76161179 C1239.09039035 -0.78023807 1242.5302237 -0.74866266 1245.97220367 -0.71758312 C1248.45552944 -0.72063387 1250.93885303 -0.72675966 1253.42216456 -0.73570728 C1258.83280243 -0.74812428 1264.24273165 -0.73870942 1269.65329689 -0.71023983 C1277.69843766 -0.66802497 1285.74323828 -0.66588622 1293.78846962 -0.67203375 C1307.32109824 -0.6812355 1320.85348779 -0.65782464 1334.38604683 -0.6159119 C1347.78751632 -0.57451144 1361.18888626 -0.5475541 1374.59041923 -0.5399422 C1375.42326995 -0.53946103 1376.25612067 -0.53897985 1377.11420928 -0.53848409 C1381.34373139 -0.5361158 1385.57325359 -0.5340061 1389.80277588 -0.53199596 C1419.7708339 -0.51728788 1449.73876181 -0.47011197 1479.70674652 -0.40387768 C1508.82262489 -0.33960089 1537.93846767 -0.29000865 1567.05440277 -0.26032299 C1567.95167274 -0.2594023 1568.84894271 -0.25848162 1569.77340268 -0.25753304 C1578.78404768 -0.2483035 1587.79469294 -0.23937279 1596.80533845 -0.23066102 C1615.16152972 -0.2129069 1633.51771867 -0.19315813 1651.87390655 -0.17220348 C1652.71791895 -0.17124245 1653.56193134 -0.17028142 1654.43151987 -0.16929127 C1710.80595011 -0.10487219 1767.18030652 0.00619134 1823.55464691 0.1241985 C1821.87340938 4.46488188 1819.79110029 8.45909671 1817.49214691 12.4991985 C1817.14732269 13.11408131 1816.80249847 13.72896412 1816.44722503 14.36247975 C1813.05944457 20.35487602 1809.49643209 26.24239503 1805.94795746 32.14031178 C1802.49826127 37.87642739 1799.08421029 43.63367965 1795.66905731 49.39040333 C1794.45252592 51.44098346 1793.23543605 53.49123138 1792.01826996 55.54143482 C1788.02253654 62.27295164 1784.03099661 69.00692016 1780.04683441 75.74529225 C1779.33338929 76.95135591 1778.61992931 78.15741077 1777.90645355 79.36345631 C1776.59704707 81.57688768 1775.28914352 83.79118255 1773.98213714 86.00603443 C1772.81973192 87.97137681 1771.63899511 89.92606026 1770.43531555 91.86639839 C1768.49076983 95.07480292 1768.49076983 95.07480292 1767.14207214 98.50696045 C1763.13231292 107.11048683 1763.13231292 107.11048683 1758.67983764 108.86149961 C1752.83063541 110.07734227 1746.85788365 109.75140537 1740.91988128 109.60002857 C1738.90887704 109.59635914 1736.8978554 109.59842481 1734.88686126 109.60578114 C1729.43969403 109.60950591 1723.99626092 109.53317988 1718.54996055 109.44231969 C1712.85400304 109.36095527 1707.15795623 109.35340889 1701.46150726 109.33798939 C1690.68032894 109.29761091 1679.90086787 109.19097227 1669.12044519 109.06044602 C1656.84504112 108.915051 1644.56955424 108.84364109 1632.29350322 108.77840537 C1607.04604687 108.64258314 1581.80094412 108.40421951 1556.55464691 108.1241985 C1556.55464691 123.9641985 1556.55464691 139.8041985 1556.55464691 156.1241985 C1638.72464691 156.1241985 1720.89464691 156.1241985 1805.55464691 156.1241985 C1804.55543499 160.12104617 1802.9938492 163.05972521 1800.89839691 166.5304485 C1800.52425155 167.15904774 1800.1501062 167.78764698 1799.76462311 168.43529469 C1798.53299243 170.50131288 1797.29396668 172.56278504 1796.05464691 174.6241985 C1795.19290129 176.06572939 1794.33149584 177.50746369 1793.47041839 178.94939381 C1786.5187517 190.57580378 1779.49131641 202.15638146 1772.44527191 213.725761 C1767.98642442 221.04975779 1763.57187977 228.39991747 1759.16792816 235.757011 C1758.75103037 236.41560423 1758.33413257 237.07419747 1757.90460151 237.75274807 C1756.48204709 240.09163389 1756.48204709 240.09163389 1755.6369738 242.69827038 C1754.31123233 245.89441248 1753.13466335 247.79069714 1750.55464691 250.1241985 C1744.42005676 251.6489369 1738.35107411 251.38864953 1732.06490082 251.2594524 C1730.15271157 251.25663078 1728.2405115 251.25821673 1726.32832855 251.26387745 C1721.1419484 251.26674636 1715.95788179 251.20796677 1710.77203935 251.13813788 C1705.35092957 251.07561557 1699.92976644 251.06974998 1694.50835174 251.0578838 C1684.24449273 251.02680473 1673.98169911 250.94474751 1663.71830922 250.8443889 C1652.03293254 250.73260659 1640.34750491 250.67763059 1628.66172665 250.62743455 C1604.62530669 250.52291336 1580.5903472 250.3395306 1556.55464691 250.1241985 C1556.55464691 268.2741985 1556.55464691 286.4241985 1556.55464691 305.1241985 C1644.99464691 305.1241985 1733.43464691 305.1241985 1824.55464691 305.1241985 C1818.93376262 316.36596708 1818.93376262 316.36596708 1816.45308441 320.444511 C1815.89040863 321.37521412 1815.32773285 322.30591725 1814.74800628 323.2648235 C1813.84791839 324.74208912 1813.84791839 324.74208912 1812.92964691 326.2491985 C1811.59293019 328.45966498 1810.25703334 330.67062739 1808.92183441 332.882011 C1808.39701477 333.75010395 1808.39701477 333.75010395 1807.86159271 334.63573414 C1803.95975926 341.09533096 1800.11277371 347.58728829 1796.26604217 354.07979542 C1763.78843574 408.89040966 1763.78843574 408.89040966 1761.55464691 411.1241985 C1759.40832117 411.22403318 1757.25863749 411.25160168 1755.10999149 411.25283295 C1754.08306513 411.25546251 1754.08306513 411.25546251 1753.03539279 411.25814518 C1750.71232855 411.26284372 1748.38932584 411.26032983 1746.06625885 411.25791126 C1744.39530519 411.25977735 1742.72435197 411.26207724 1741.05339944 411.26477659 C1736.43856279 411.270927 1731.82374415 411.27075718 1727.20890433 411.26958221 C1722.23988486 411.26937899 1717.2708713 411.27488971 1712.30185455 411.27963978 C1702.55358802 411.28796692 1692.80532753 411.29069564 1683.05705775 411.29125216 C1675.12817238 411.29172678 1667.19928901 411.29377882 1659.27040428 411.29695278 C1636.78978175 411.3057685 1614.30916401 411.31037126 1591.82853974 411.30962231 C1590.61513997 411.30958235 1589.4017402 411.3095424 1588.15157074 411.30950123 C1586.936687 411.30946035 1585.72180326 411.30941947 1584.47010487 411.30937735 C1564.8176134 411.30897163 1545.16514117 411.31852006 1525.51265527 411.3326396 C1505.33277387 411.34702338 1485.15290184 411.35390854 1464.97301519 411.35304582 C1453.64438828 411.35271432 1442.31578148 411.35544012 1430.98715919 411.36622387 C1421.33172511 411.37535568 1411.67632023 411.37748254 1402.02088369 411.37071445 C1397.09925378 411.36746144 1392.1776798 411.36734795 1387.2560553 411.3760677 C1382.73823692 411.38398903 1378.22051827 411.3824444 1373.70270216 411.37378357 C1372.07994564 411.37226076 1370.45718146 411.37401793 1368.83443398 411.37964364 C1353.42300876 411.42947361 1338.24441375 410.23150662 1323.24214691 406.4991985 C1321.66312591 406.11006275 1321.66312591 406.11006275 1320.0522055 405.71306568 C1281.26291892 395.77488026 1247.35314946 373.51045892 1222.55464691 342.1241985 C1221.84437347 341.24247975 1221.13410003 340.360761 1220.40230316 339.4523235 C1198.91518379 311.94259382 1187.21383136 279.87849379 1179.55464691 246.1241985 C1177.34457448 249.26881324 1175.13691749 252.41511659 1172.92964691 255.5616985 C1172.0034555 256.87944264 1172.0034555 256.87944264 1171.05855316 258.22380787 C1170.14009613 259.53381764 1170.14009613 259.53381764 1169.20308441 260.87029225 C1168.3704306 262.05643116 1168.3704306 262.05643116 1167.5209555 263.26653248 C1166.87207367 264.20956227 1166.22319183 265.15259205 1165.55464691 266.1241985 C1164.82335949 267.00183102 1164.82335949 267.00183102 1164.07729858 267.89719349 C1158.88993371 274.59227961 1158.70014997 280.36041606 1158.78169769 288.63030201 C1158.77351261 289.97153197 1158.76270199 291.31274805 1158.74948639 292.65393788 C1158.72121083 296.26928289 1158.72934823 299.88371093 1158.74435419 303.49910051 C1158.75377343 307.28682081 1158.72924762 311.07432319 1158.70842499 314.86197621 C1158.67416307 322.02286977 1158.67013554 329.18344364 1158.67715007 336.34440279 C1158.68487306 346.02909872 1158.64552738 355.71359836 1158.60891098 365.39820915 C1158.55251532 380.64032936 1158.55869268 395.88176627 1158.55464691 411.1241985 C1125.88464691 411.1241985 1093.21464691 411.1241985 1059.55464691 411.1241985 C1059.67259613 396.60290943 1059.67259613 396.60290943 1059.79292816 381.788261 C1059.81376692 375.62670553 1059.83128116 369.4654319 1059.83394378 363.303886 C1059.83877338 353.54024899 1059.85652334 343.77795592 1059.96260589 334.0148235 C1060.03983628 326.9012802 1060.07026129 319.78925494 1060.0468303 312.67530626 C1060.03601901 308.91535709 1060.04704195 305.15861064 1060.11433357 301.39918095 C1060.40806323 284.04076825 1059.6521387 271.08138043 1047.19787163 257.95033604 C1044.44946879 254.89599931 1042.24939812 251.48521374 1039.99214691 248.0616985 C1039.09316304 246.74128471 1038.19236543 245.42210227 1037.28902191 244.10466725 C1036.61709808 243.12312672 1036.61709808 243.12312672 1035.93160003 242.12175709 C1033.07733199 237.98104412 1030.1646278 233.88143033 1027.25679535 229.77825123 C1024.46507658 225.83681592 1021.68788105 221.88603507 1018.92964691 217.9210735 C1018.31581146 217.03967701 1017.70197601 216.15828053 1017.06953949 215.25017506 C1015.89029893 213.55559771 1014.71291452 211.85972645 1013.53780121 210.16228443 C1009.71563034 204.67455832 1005.70939689 199.36439549 1001.55464691 194.1241985 C1001.21433441 195.2379485 1000.87402191 196.3516985 1000.52339691 197.4991985 C991.02721447 227.72887936 974.01187127 254.38852361 945.54292816 269.7491985 C939.35386656 272.91901238 933.06188311 275.67678665 926.55464691 278.1241985 C926.95554535 278.50189381 927.35644378 278.87958912 927.76949066 279.26872975 C932.67407029 284.01760844 936.95645602 289.14616613 941.22115082 294.46990162 C942.66845283 296.26538284 944.13161445 298.04708115 945.59761566 299.8273235 C953.19065528 309.06573221 960.45494706 318.50304818 967.55464691 328.1241985 C968.68997067 329.65681941 969.82539026 331.18936933 970.96089691 332.72185475 C979.45243129 344.19970856 987.81938532 355.7653414 996.1591391 367.35369068 C1002.98371043 376.83341439 1009.85133336 386.27852024 1016.79854339 395.66887623 C1018.38756355 397.81798574 1019.97122213 399.97096525 1021.55464691 402.1241985 C1022.05480316 402.79531666 1022.55495941 403.46643482 1023.07027191 404.1578899 C1026.55464691 408.89874423 1026.55464691 408.89874423 1026.55464691 411.1241985 C1009.55212299 411.56916185 992.55142849 411.90360905 975.54440445 412.10862976 C967.64641859 412.20638288 959.75206037 412.3394744 951.85640472 412.55754811 C944.9695977 412.74766635 938.08541713 412.86966498 931.19605893 412.9118799 C927.55048486 412.93654663 923.91241898 412.99390363 920.26926941 413.13306957 C898.17589945 413.94479893 898.17589945 413.94479893 892.18765968 409.28054768 C888.26509096 404.8280387 885.79057961 399.8973255 883.55919784 394.43654305 C882.09071205 391.05628128 880.14003432 388.21064899 878.05074066 385.178886 C877.3786557 384.15400074 876.70657074 383.12911549 876.01411957 382.07317311 C875.34686859 381.05876148 874.67961761 380.04434986 873.99214691 378.9991985 C872.5291662 376.76921541 871.06734112 374.53847542 869.60542816 372.30779225 C868.91142914 371.2493108 868.21743011 370.19082936 867.50240082 369.10027272 C863.58718538 363.11801198 859.70967885 357.1114304 855.83296722 351.10417897 C853.57639741 347.6089954 851.31516816 344.11682715 849.05464691 340.6241985 C848.14318179 339.21534872 847.23172345 337.80649456 846.32027191 336.397636 C844.43598959 333.48544148 842.5504121 330.57409054 840.66402191 327.663261 C840.18513519 326.92398365 839.70624847 326.18470631 839.21285003 325.42302662 C838.31607223 324.03868031 837.41897191 322.65454283 836.52144378 321.27068287 C835.89592621 320.30485279 835.89592621 320.30485279 835.25777191 319.319511 C834.84270921 318.70415895 834.4276465 318.0888069 834.00000614 317.45480782 C832.55464691 315.1241985 832.55464691 315.1241985 831.2682156 312.35537964 C829.03333408 307.9557397 827.3705811 304.73496568 822.53910011 303.10995632 C818.69753162 302.72774486 814.93387987 302.69585338 811.0822348 302.78362232 C809.61321143 302.77685586 808.1442036 302.76525305 806.67525238 302.7491985 C802.70148575 302.7193947 798.73091141 302.75698067 794.75745457 302.80693609 C790.60005109 302.84765882 786.44297569 302.82605062 782.28546661 302.81113392 C774.41930508 302.79234092 766.55444269 302.82937382 758.68850696 302.88660645 C748.05483517 302.96073807 737.42128398 302.94834985 726.78741497 302.94087845 C710.04237978 302.93138838 693.30010202 303.03724589 676.55464691 303.1241985 C676.55464691 338.7641985 676.55464691 374.4041985 676.55464691 411.1241985 C633.32464691 411.1241985 590.09464691 411.1241985 545.55464691 411.1241985 C545.55464691 358.9841985 545.55464691 306.8441985 545.55464691 253.1241985 C484.17464691 253.1241985 422.79464691 253.1241985 359.55464691 253.1241985 C359.55464691 305.2641985 359.55464691 357.4041985 359.55464691 411.1241985 C326.88464691 411.1241985 294.21464691 411.1241985 260.55464691 411.1241985 C260.55464691 311.1341985 260.55464691 211.1441985 260.55464691 108.1241985 C234.15464691 108.1241985 207.75464691 108.1241985 180.55464691 108.1241985 C180.55464691 208.1141985 180.55464691 308.1041985 180.55464691 411.1241985 C147.88464691 411.1241985 115.21464691 411.1241985 81.55464691 411.1241985 C81.55464691 311.1341985 81.55464691 211.1441985 81.55464691 108.1241985 C32.71464691 108.1241985 -16.12535309 108.1241985 -66.44535309 108.1241985 C-62.40929081 100.72475098 -58.32941312 93.39201461 -54.07035309 86.1241985 C-53.46948883 85.09657398 -52.86862458 84.06894947 -52.24955231 83.01018482 C-45.71076937 71.84277794 -39.10738036 60.7137269 -32.49955231 49.58708912 C-30.41570685 46.07612075 -28.33832163 42.56135289 -26.26175934 39.0460735 C-20.22711681 28.83349954 -14.18583441 18.62597136 -8.00785309 8.4991985 C-7.32565705 7.37952687 -7.32565705 7.37952687 -6.62967926 6.23723561 C-2.89547674 0.14706009 -2.89547674 0.14706009 0 0 Z M676.55464691 108.1241985 C676.55464691 138.8141985 676.55464691 169.5041985 676.55464691 201.1241985 C708.05171222 201.18249328 708.05171222 201.18249328 739.54878753 201.22185475 C752.39816906 201.23370948 765.2475243 201.24762547 778.09688324 201.2750774 C787.45612154 201.29506329 796.81533846 201.30792725 806.1745975 201.31237549 C811.12645393 201.31497408 816.07824922 201.32104635 821.03008598 201.33565861 C825.69954278 201.34932479 830.36891377 201.35340302 835.03838867 201.35041386 C836.7438562 201.35096001 838.44932687 201.35488326 840.15477699 201.36260945 C858.41650093 201.44121924 875.8988153 200.15584404 890.55464691 188.1241985 C891.27652191 187.53896412 891.99839691 186.95372975 892.74214691 186.350761 C900.59237984 179.3033928 905.12154962 169.26197503 905.75777191 158.77654225 C905.93529199 144.70807622 903.58176631 133.26086306 894.17964691 122.3741985 C893.31339691 121.6316985 892.44714691 120.8891985 891.55464691 120.1241985 C890.99261566 119.63306568 890.43058441 119.14193287 889.85152191 118.63591725 C884.59628894 114.33132601 879.07838758 111.93178407 872.55464691 110.1241985 C871.63879287 109.87004516 871.63879287 109.87004516 870.70443672 109.61075741 C862.01359056 107.5377676 853.21695628 107.8587621 844.34517425 107.89714772 C842.51121029 107.8977126 840.67724587 107.89739376 838.84328216 107.89626271 C833.88944676 107.89569122 828.93570912 107.9074124 823.98189634 107.92141062 C818.79559052 107.93395209 813.60928221 107.93509117 808.42296356 107.93746144 C798.61305214 107.94366618 788.80318554 107.96006337 778.99329382 107.98016042 C765.72932987 108.00674114 752.46535359 108.01750018 739.2013697 108.02916485 C718.31909523 108.0479447 697.43691532 108.0877971 676.55464691 108.1241985 Z M1300.01949066 136.78435475 C1279.72266753 160.42336488 1273.87803696 189.72226588 1275.55464691 220.1241985 C1277.84208317 241.48066361 1286.19464698 261.11124894 1300.55464691 277.1241985 C1301.38222503 278.07552662 1301.38222503 278.07552662 1302.22652191 279.0460735 C1318.07382751 296.14861123 1340.09476556 302.87821036 1362.55464691 305.1241985 C1393.90464691 305.1241985 1425.25464691 305.1241985 1457.55464691 305.1241985 C1457.55464691 240.1141985 1457.55464691 175.1041985 1457.55464691 108.1241985 C1441.19902191 108.0623235 1424.84339691 108.0004485 1407.99214691 107.9366985 C1402.85579681 107.90938648 1397.71944671 107.88207447 1392.42744964 107.85393482 C1387.76406915 107.84389249 1387.76406915 107.84389249 1383.10068268 107.83786732 C1381.04715526 107.83330474 1378.99363514 107.82284688 1376.94016021 107.80747181 C1347.23135287 107.59643577 1321.10394722 114.66029478 1300.01949066 136.78435475 Z " fill="#BF1E2D" transform="translate(66.44535309076309,-0.12419849634170532)"/>
<path d="M0 0 C16.2899006 -0.25728368 32.57913956 -0.45109042 48.87058258 -0.56993389 C56.43557258 -0.62658944 63.99929829 -0.70378465 71.56347656 -0.82983398 C78.15870634 -0.93968412 84.75302048 -1.0104878 91.34913969 -1.03497344 C94.84040446 -1.04928252 98.32905061 -1.08274682 101.81947327 -1.16303062 C105.72193389 -1.25205862 109.62186414 -1.25387654 113.52539062 -1.2487793 C114.67482147 -1.28832733 115.82425232 -1.32787537 117.0085144 -1.36862183 C121.95386189 -1.2988109 124.82680209 -1.14331055 128.46097279 2.39827919 C130.51366765 5.18684126 132.29251915 7.99022666 134 11 C134.81630844 12.27927478 135.63660847 13.55604026 136.46557617 14.82714844 C137.18189163 16.00272368 137.895137 17.18017452 138.60546875 18.359375 C144.85818841 28.53419827 151.60216761 38.37382523 158.3125 48.25 C166.64440874 60.52275005 174.8893081 72.83906247 182.94750977 85.29345703 C187.5090027 92.33974738 192.15493599 99.32948271 196.8125 106.3125 C197.51492325 107.36692795 197.51492325 107.36692795 198.23153687 108.44265747 C204.16376303 117.34293605 210.16595566 126.18347205 216.3125 134.9375 C222.14063233 143.24351062 227.80451513 151.64502204 233.375 160.125 C233.74670319 160.68774628 234.11840637 161.25049255 234.50137329 161.83029175 C235.55530235 163.42790527 236.6020151 165.03027215 237.6484375 166.6328125 C238.24833496 167.54949707 238.84823242 168.46618164 239.46630859 169.41064453 C240.93270955 171.88639246 242.0144724 174.30151708 243 177 C243.66 177 244.32 177 245 177 C245.40049561 175.68165161 245.40049561 175.68165161 245.80908203 174.33666992 C246.95349031 171.13030914 248.2963741 168.51912826 250.0546875 165.61328125 C250.66320557 164.60241455 251.27172363 163.59154785 251.89868164 162.55004883 C252.5508667 161.48165771 253.20305176 160.4132666 253.875 159.3125 C254.54974365 158.19834717 255.2244873 157.08419434 255.91967773 155.9362793 C261.32889514 147.03242528 266.84444474 138.19941546 272.45361328 129.42041016 C274.71033728 125.88817748 276.95928478 122.35100706 279.20922852 118.81445312 C280.40074415 116.94181615 281.59263724 115.0694193 282.78491211 113.19726562 C288.05533141 104.92047527 293.2976292 96.62613701 298.53222656 88.32666016 C301.01983357 84.38339755 303.51006414 80.44179232 306 76.5 C307.00001224 74.9166744 308.00001225 73.33334107 309 71.75 C311 68.58333333 313 65.41666667 315 62.25 C315.49483887 61.4664917 315.98967773 60.6829834 316.49951172 59.87573242 C317.50109035 58.28992675 318.50271808 56.70415209 319.50439453 55.1184082 C321.98064184 51.19815243 324.45607701 47.27738893 326.9296875 43.35546875 C329.94962357 38.56809541 332.97419354 33.78366458 336 29 C336.89549561 27.58291748 336.89549561 27.58291748 337.80908203 26.13720703 C339.68302689 23.1734089 341.55993108 20.21150333 343.4375 17.25 C344.30640869 15.8746106 344.30640869 15.8746106 345.19287109 14.47143555 C345.74668457 13.59914307 346.30049805 12.72685059 346.87109375 11.828125 C347.59703735 10.6819873 347.59703735 10.6819873 348.33764648 9.51269531 C348.88622314 8.68350586 349.4347998 7.85431641 350 7 C350.29847898 6.4237048 350.59695795 5.84740959 350.90448175 5.2536509 C352.56391458 2.38551871 353.82708387 0.36499899 357.08071891 -0.64749753 C359.7430023 -0.89426576 362.32780948 -0.91302642 365.00127888 -0.8613348 C366.02176068 -0.86941171 367.04224249 -0.87748862 368.09364799 -0.88581029 C371.53574344 -0.90443657 374.97557679 -0.87286115 378.41755676 -0.84178162 C380.90088253 -0.84483237 383.38420613 -0.85095815 385.86751765 -0.85990578 C391.27815552 -0.87232278 396.68808474 -0.86290791 402.09864998 -0.83443832 C410.14379075 -0.79222347 418.18859137 -0.79008472 426.23382271 -0.79623224 C439.76645133 -0.805434 453.29884088 -0.78202313 466.83139992 -0.7401104 C480.23286941 -0.69870993 493.63423935 -0.6717526 507.03577232 -0.6641407 C507.86862304 -0.66365952 508.70147376 -0.66317835 509.55956237 -0.66268259 C513.78908448 -0.6603143 518.01860668 -0.6582046 522.24812897 -0.65619446 C552.21618699 -0.64148638 582.1841149 -0.59431047 612.15209961 -0.52807617 C641.26797798 -0.46379938 670.38382077 -0.41420715 699.49975586 -0.38452148 C700.39702583 -0.3836008 701.2942958 -0.38268012 702.21875578 -0.38173154 C711.22940077 -0.372502 720.24004603 -0.36357129 729.25069154 -0.35485952 C747.60688281 -0.33710539 765.96307176 -0.31735663 784.31925964 -0.29640198 C785.16327204 -0.29544095 786.00728443 -0.29447992 786.87687296 -0.29348977 C843.2513032 -0.22907069 899.62565961 -0.11800715 956 0 C954.31876247 4.34068338 952.23645338 8.33489822 949.9375 12.375 C949.42026367 13.29732422 949.42026367 13.29732422 948.89257812 14.23828125 C945.50479766 20.23067752 941.94178518 26.11819653 938.39331055 32.01611328 C934.94361436 37.75222889 931.52956338 43.50948115 928.1144104 49.26620483 C926.89787901 51.31678497 925.68078914 53.36703288 924.46362305 55.41723633 C920.46788963 62.14875315 916.4763497 68.88272166 912.4921875 75.62109375 C911.77874238 76.82715741 911.0652824 78.03321228 910.35180664 79.23925781 C909.04240016 81.45268918 907.73449661 83.66698406 906.42749023 85.88183594 C905.26508501 87.84717832 904.0843482 89.80186176 902.88066864 91.7421999 C900.93612292 94.95060443 900.93612292 94.95060443 899.58742523 98.38276196 C895.57766601 106.98628834 895.57766601 106.98628834 891.12519073 108.73730111 C885.2759885 109.95314378 879.30323674 109.62720687 873.36523438 109.47583008 C871.35423014 109.47216064 869.34320849 109.47422631 867.33221436 109.48158264 C861.88504712 109.48530741 856.44161401 109.40898138 850.99531364 109.31812119 C845.29935613 109.23675677 839.60330932 109.22921039 833.90686035 109.21379089 C823.12568203 109.17341241 812.34622096 109.06677377 801.56579828 108.93624753 C789.29039421 108.7908525 777.01490733 108.71944259 764.73885632 108.65420687 C739.49139996 108.51838464 714.24629721 108.28002102 689 108 C689 123.84 689 139.68 689 156 C771.17 156 853.34 156 938 156 C937.00078808 159.99684767 935.43920229 162.93552671 933.34375 166.40625 C932.96960464 167.03484924 932.59545929 167.66344849 932.2099762 168.31109619 C930.97834552 170.37711438 929.73931978 172.43858655 928.5 174.5 C927.63825438 175.9415309 926.77684893 177.38326519 925.91577148 178.82519531 C918.96410479 190.45160528 911.9366695 202.03218297 904.890625 213.6015625 C900.43177751 220.92555929 896.01723286 228.27571897 891.61328125 235.6328125 C891.19638346 236.29140574 890.77948566 236.94999897 890.34995461 237.62854958 C888.92740018 239.96743539 888.92740018 239.96743539 888.08232689 242.57407188 C886.75658542 245.77021399 885.58001644 247.66649864 883 250 C876.86540985 251.5247384 870.7964272 251.26445103 864.51025391 251.13525391 C862.59806466 251.13243228 860.68586459 251.13401824 858.77368164 251.13967896 C853.58730149 251.14254786 848.40323488 251.08376828 843.21739244 251.01393938 C837.79628266 250.95141707 832.37511953 250.94555148 826.95370483 250.9336853 C816.68984583 250.90260623 806.4270522 250.82054901 796.16366231 250.72019041 C784.47828563 250.6084081 772.792858 250.55343209 761.10707974 250.50323606 C737.07065978 250.39871486 713.03570029 250.2153321 689 250 C689 268.15 689 286.3 689 305 C777.44 305 865.88 305 957 305 C951.37911571 316.24176858 951.37911571 316.24176858 948.8984375 320.3203125 C948.33576172 321.25101562 947.77308594 322.18171875 947.19335938 323.140625 C946.59330078 324.12546875 945.99324219 325.1103125 945.375 326.125 C944.03828329 328.33546648 942.70238643 330.5464289 941.3671875 332.7578125 C940.84236786 333.62590546 940.84236786 333.62590546 940.3069458 334.51153564 C936.40511235 340.97113246 932.5581268 347.4630898 928.71139526 353.95559692 C896.23378883 408.76621117 896.23378883 408.76621117 894 411 C891.85367426 411.09983468 889.70399058 411.12740319 887.55534458 411.12863445 C886.52841823 411.13126401 886.52841823 411.13126401 885.48074588 411.13394669 C883.15768164 411.13864522 880.83467893 411.13613134 878.51161194 411.13371277 C876.84065828 411.13557886 875.16970506 411.13787875 873.49875253 411.14057809 C868.88391588 411.1467285 864.26909724 411.14655869 859.65425742 411.14538372 C854.68523795 411.1451805 849.71622439 411.15069121 844.74720764 411.15544128 C834.99894111 411.16376842 825.25068062 411.16649714 815.50241084 411.16705366 C807.57352547 411.16752828 799.6446421 411.16958033 791.71575737 411.17275429 C769.23513484 411.18157001 746.7545171 411.18617276 724.27389283 411.18542381 C723.06049306 411.18538386 721.84709329 411.1853439 720.59692383 411.18530273 C719.38204009 411.18526185 718.16715635 411.18522097 716.91545796 411.18517885 C697.26296649 411.18477313 677.61049426 411.19432157 657.95800836 411.2084411 C637.77812696 411.22282488 617.59825493 411.22971004 597.41836828 411.22884732 C586.08974137 411.22851583 574.76113457 411.23124163 563.43251228 411.24202538 C553.7770782 411.25115718 544.12167332 411.25328405 534.46623678 411.24651595 C529.54460687 411.24326295 524.62303289 411.24314945 519.70140839 411.2518692 C515.18359001 411.25979054 510.66587136 411.25824591 506.14805525 411.24958507 C504.52529873 411.24806226 502.90253455 411.24981944 501.27978707 411.25544515 C485.86836185 411.30527512 470.68976685 410.10730812 455.6875 406.375 C454.63481934 406.11557617 453.58213867 405.85615234 452.49755859 405.58886719 C413.70827201 395.65068176 379.79850255 373.38626042 355 342 C354.28972656 341.11828125 353.57945312 340.2365625 352.84765625 339.328125 C331.36053688 311.81839532 319.65918445 279.7542953 312 246 C309.78992758 249.14461474 307.58227058 252.2909181 305.375 255.4375 C304.75753906 256.31599609 304.14007812 257.19449219 303.50390625 258.09960938 C302.58544922 259.40961914 302.58544922 259.40961914 301.6484375 260.74609375 C301.09333496 261.53685303 300.53823242 262.3276123 299.96630859 263.14233398 C299.31742676 264.08536377 298.66854492 265.02839355 298 266 C297.51247505 266.58508835 297.0249501 267.1701767 296.52265167 267.772995 C291.3352868 274.46808111 291.14550307 280.23621757 291.22705078 288.50610352 C291.2188657 289.84733347 291.20805508 291.18854956 291.19483948 292.52973938 C291.16656392 296.14508439 291.17470132 299.75951243 291.18970728 303.37490201 C291.19912652 307.16262231 291.17460071 310.95012469 291.15377808 314.73777771 C291.11951616 321.89867128 291.11548863 329.05924515 291.12250316 336.22020429 C291.13022615 345.90490023 291.09088047 355.58939986 291.05426407 365.27401066 C290.99786841 380.51613086 291.00404577 395.75756777 291 411 C258.33 411 225.66 411 192 411 C192.07863281 401.31914062 192.15726563 391.63828125 192.23828125 381.6640625 C192.25912001 375.50250703 192.27663425 369.3412334 192.27929688 363.1796875 C192.28412647 353.41605049 192.30187643 343.65375742 192.40795898 333.890625 C192.48518937 326.7770817 192.51561438 319.66505645 192.49218339 312.55110776 C192.48137211 308.7911586 192.49239504 305.03441214 192.55968666 301.27498245 C192.85341632 283.91656976 192.09749179 270.95718193 179.64322472 257.82613754 C176.89482188 254.77180082 174.69475121 251.36101524 172.4375 247.9375 C171.53851613 246.61708621 170.63771852 245.29790377 169.734375 243.98046875 C169.28642578 243.3261084 168.83847656 242.67174805 168.37695312 241.99755859 C166.00864 238.56182491 163.59858408 235.15579497 161.1875 231.75 C154.98719534 222.99171298 148.82983149 214.20372174 142.68457031 205.40673828 C141.50451309 203.72079566 140.32130142 202.03705861 139.13574219 200.35498047 C138.5224707 199.48373535 137.90919922 198.61249023 137.27734375 197.71484375 C136.72425537 196.93101318 136.17116699 196.14718262 135.60131836 195.33959961 C133.95421447 192.93310524 132.40546594 190.48200875 130.875 188 C127.228746 182.20506061 123.21478136 176.70896843 119.18334961 171.17993164 C115.17156121 165.66236899 111.27233609 160.07930578 107.4375 154.4375 C101.87269026 146.25331856 96.20241518 138.15067289 90.47509766 130.07958984 C88.02034959 126.61889073 85.57233363 123.15344484 83.125 119.6875 C82.63507568 118.99382324 82.14515137 118.30014648 81.64038086 117.58544922 C77.14603507 111.21694304 72.67814056 104.83004077 68.21142578 98.44213867 C64.48751174 93.11867389 60.75045821 87.8047925 57 82.5 C52.04814271 75.49590239 47.12636217 68.47110748 42.2109375 61.44140625 C38.00512178 55.42912782 33.77972501 49.43103251 29.54345703 43.44018555 C25.03885534 37.06550973 20.56640729 30.66851899 16.09887695 24.26782227 C13.3979252 20.40343015 10.68597651 16.54892479 7.92578125 12.7265625 C7.45994629 12.08098389 6.99411133 11.43540527 6.51416016 10.77026367 C5.65663781 9.58560775 4.79585255 8.40330384 3.93115234 7.22387695 C2.1797891 4.80570338 0.95262749 2.85788248 0 0 Z M432.46484375 136.66015625 C412.16802062 160.29916638 406.32339005 189.59806738 408 220 C410.28743626 241.35646512 418.64000007 260.98705044 433 277 C433.82757812 277.95132813 433.82757812 277.95132813 434.671875 278.921875 C450.5191806 296.02441273 472.54011865 302.75401187 495 305 C526.35 305 557.7 305 590 305 C590 239.99 590 174.98 590 108 C573.644375 107.938125 557.28875 107.87625 540.4375 107.8125 C535.3011499 107.78518799 530.1647998 107.75787598 524.87280273 107.72973633 C520.20942224 107.71969399 520.20942224 107.71969399 515.54603577 107.71366882 C513.49250835 107.70910624 511.43898823 107.69864838 509.38551331 107.68327332 C479.67670596 107.47223728 453.54930031 114.53609628 432.46484375 136.66015625 Z " fill="#FEFEFE" transform="translate(934,0)"/>
<path d="M0 0 C1.09929036 0.00037972 2.19858071 0.00075944 3.3311829 0.00115067 C4.59416314 -0.00084038 5.85714339 -0.00283143 7.15839577 -0.00488281 C8.57820448 -0.00202922 9.998013 0.00091639 11.41782135 0.00394398 C12.91186232 0.00350841 14.40590322 0.00263377 15.89994371 0.00135481 C20.02506374 -0.00089294 24.15015806 0.00313494 28.27527481 0.00813287 C32.71633486 0.0124332 37.15739335 0.01099125 41.59845489 0.0102306 C49.29940713 0.0097051 57.00035092 0.01285463 64.70130104 0.01846844 C75.83571606 0.0265799 86.97012698 0.0291983 98.10454463 0.03045643 C116.16742284 0.03264751 134.23029654 0.0393091 152.2931723 0.04875904 C169.84427884 0.05793172 187.39538416 0.06501326 204.94649261 0.06926686 C206.02752229 0.06952958 207.10855196 0.0697923 208.22234011 0.07006299 C213.64530327 0.07136798 219.06826643 0.0726317 224.49122959 0.07387489 C269.5123727 0.08424924 314.53350748 0.10268847 359.55464691 0.1241985 C359.55464691 47.9741985 359.55464691 95.8241985 359.55464691 145.1241985 C420.93464691 145.1241985 482.31464691 145.1241985 545.55464691 145.1241985 C545.55464691 180.7641985 545.55464691 216.4041985 545.55464691 253.1241985 C484.17464691 253.1241985 422.79464691 253.1241985 359.55464691 253.1241985 C359.55464691 305.2641985 359.55464691 357.4041985 359.55464691 411.1241985 C326.88464691 411.1241985 294.21464691 411.1241985 260.55464691 411.1241985 C260.55464691 311.1341985 260.55464691 211.1441985 260.55464691 108.1241985 C234.15464691 108.1241985 207.75464691 108.1241985 180.55464691 108.1241985 C180.55464691 208.1141985 180.55464691 308.1041985 180.55464691 411.1241985 C147.88464691 411.1241985 115.21464691 411.1241985 81.55464691 411.1241985 C81.55464691 311.1341985 81.55464691 211.1441985 81.55464691 108.1241985 C32.71464691 108.1241985 -16.12535309 108.1241985 -66.44535309 108.1241985 C-62.40929081 100.72475098 -58.32941312 93.39201461 -54.07035309 86.1241985 C-53.46948883 85.09657398 -52.86862458 84.06894947 -52.24955231 83.01018482 C-45.71076937 71.84277794 -39.10738036 60.7137269 -32.49955231 49.58708912 C-30.41570685 46.07612075 -28.33832163 42.56135289 -26.26175934 39.0460735 C-20.22711681 28.83349954 -14.18583441 18.62597136 -8.00785309 8.4991985 C-7.32565705 7.37952687 -7.32565705 7.37952687 -6.62967926 6.23723561 C-2.89547674 0.14706009 -2.89547674 0.14706009 0 0 Z " fill="#FFFFFF" transform="translate(66.44535309076309,-0.12419849634170532)"/>
<path d="M0 0 C120.78 0 241.56 0 366 0 C364.2561087 4.35972825 362.2487499 8.31328874 359.9375 12.375 C359.59267578 12.98988281 359.24785156 13.60476563 358.89257812 14.23828125 C355.50479766 20.23067752 351.94178518 26.11819653 348.39331055 32.01611328 C344.94361436 37.75222889 341.52956338 43.50948115 338.1144104 49.26620483 C336.89787901 51.31678497 335.68078914 53.36703288 334.46362305 55.41723633 C330.46788963 62.14875315 326.4763497 68.88272166 322.4921875 75.62109375 C321.77874238 76.82715741 321.0652824 78.03321228 320.35180664 79.23925781 C319.04240016 81.45268918 317.73449661 83.66698406 316.42749023 85.88183594 C315.26508501 87.84717832 314.0843482 89.80186176 312.88066864 91.7421999 C310.93612292 94.95060443 310.93612292 94.95060443 309.58742523 98.38276196 C305.57766601 106.98628834 305.57766601 106.98628834 301.12519073 108.73730111 C295.2759885 109.95314378 289.30323674 109.62720687 283.36523438 109.47583008 C281.35423014 109.47216064 279.34320849 109.47422631 277.33221436 109.48158264 C271.88504712 109.48530741 266.44161401 109.40898138 260.99531364 109.31812119 C255.29935613 109.23675677 249.60330932 109.22921039 243.90686035 109.21379089 C233.12568203 109.17341241 222.34622096 109.06677377 211.56579828 108.93624753 C199.29039421 108.7908525 187.01490733 108.71944259 174.73885632 108.65420687 C149.49139996 108.51838464 124.24629721 108.28002102 99 108 C99 123.84 99 139.68 99 156 C181.17 156 263.34 156 348 156 C347.00078808 159.99684767 345.43920229 162.93552671 343.34375 166.40625 C342.96960464 167.03484924 342.59545929 167.66344849 342.2099762 168.31109619 C340.97834552 170.37711438 339.73931978 172.43858655 338.5 174.5 C337.63825438 175.9415309 336.77684893 177.38326519 335.91577148 178.82519531 C328.96410479 190.45160528 321.9366695 202.03218297 314.890625 213.6015625 C310.43177751 220.92555929 306.01723286 228.27571897 301.61328125 235.6328125 C301.19638346 236.29140574 300.77948566 236.94999897 300.34995461 237.62854958 C298.92740018 239.96743539 298.92740018 239.96743539 298.08232689 242.57407188 C296.75658542 245.77021399 295.58001644 247.66649864 293 250 C286.86540985 251.5247384 280.7964272 251.26445103 274.51025391 251.13525391 C272.59806466 251.13243228 270.68586459 251.13401824 268.77368164 251.13967896 C263.58730149 251.14254786 258.40323488 251.08376828 253.21739244 251.01393938 C247.79628266 250.95141707 242.37511953 250.94555148 236.95370483 250.9336853 C226.68984583 250.90260623 216.4270522 250.82054901 206.16366231 250.72019041 C194.47828563 250.6084081 182.792858 250.55343209 171.10707974 250.50323606 C147.07065978 250.39871486 123.03570029 250.2153321 99 250 C99 268.15 99 286.3 99 305 C187.44 305 275.88 305 367 305 C361.37911571 316.24176858 361.37911571 316.24176858 358.8984375 320.3203125 C358.33576172 321.25101562 357.77308594 322.18171875 357.19335938 323.140625 C356.59330078 324.12546875 355.99324219 325.1103125 355.375 326.125 C354.03828329 328.33546648 352.70238643 330.5464289 351.3671875 332.7578125 C351.01730774 333.33654114 350.66742798 333.91526978 350.3069458 334.51153564 C346.40511235 340.97113246 342.5581268 347.4630898 338.71139526 353.95559692 C306.23378883 408.76621117 306.23378883 408.76621117 304 411 C302.37881158 411.09710803 300.75336554 411.12371591 299.12927151 411.12304783 C297.53735454 411.12603414 297.53735454 411.12603414 295.91327763 411.12908077 C294.73367686 411.12616811 293.5540761 411.12325544 292.33872986 411.12025452 C291.09948761 411.12111053 289.86024536 411.12196655 288.58345032 411.12284851 C285.12104717 411.1242219 281.65869976 411.12106224 278.19630329 411.11607273 C274.41374687 411.11172476 270.631192 411.1131661 266.84863377 411.11389065 C259.49669041 411.11442363 252.1447592 411.10979344 244.79281897 411.10338932 C236.29388493 411.09620679 227.79495825 411.09539553 219.29602051 411.09460449 C196.8431784 411.08934798 174.39033902 411.07538695 151.9375 411.0625 C101.798125 411.041875 51.65875 411.02125 0 411 C0 275.37 0 139.74 0 0 Z " fill="#FEFEFE" transform="translate(1524,0)"/>
<path d="M0 0 C1.93172171 0.00147382 3.86344382 0.00249181 5.79516602 0.00305176 C12.88688768 0.00825365 19.97860074 0.02221475 27.0703125 0.03515625 C50.8921875 0.06609375 50.8921875 0.06609375 75.1953125 0.09765625 C75.1953125 35.73765625 75.1953125 71.37765625 75.1953125 108.09765625 C25.6328125 108.41015625 25.6328125 108.41015625 10.06811523 108.4855957 C5.40471555 108.52222276 5.40471555 108.52222276 0.74134827 108.56266785 C-1.31212481 108.57866267 -3.36564678 108.58905468 -5.41917419 108.59477234 C-33.70780331 108.68385786 -58.94011609 114.69545761 -79.8046875 135.09765625 C-99.99802057 156.38252084 -106.39189548 184.85878262 -106.0859375 213.27734375 C-105.3469324 239.69677592 -94.64672437 263.95420738 -75.6171875 282.28515625 C-57.35906664 298.32785659 -33.76721315 304.14204579 -9.94873047 304.30297852 C-8.53443599 304.3180276 -8.53443599 304.3180276 -7.0915699 304.3333807 C-4.07669556 304.36445495 -1.06180791 304.38940693 1.953125 304.4140625 C3.82934975 304.43249469 5.70557055 304.45133284 7.58178711 304.47058105 C14.49458231 304.53867977 21.40745279 304.59895519 28.3203125 304.66015625 C43.7890625 304.80453125 59.2578125 304.94890625 75.1953125 305.09765625 C75.1953125 340.07765625 75.1953125 375.05765625 75.1953125 411.09765625 C58.4065625 411.13890625 41.6178125 411.18015625 24.3203125 411.22265625 C16.42182373 411.24996826 16.42182373 411.24996826 8.36376953 411.27783203 C1.84350586 411.28686523 1.84350586 411.28686523 -1.22634888 411.2885437 C-3.33223317 411.29157857 -5.4381144 411.29853546 -7.54397583 411.30880737 C-25.05752552 411.389829 -42.04030003 410.7210946 -59.1171875 406.47265625 C-60.16986816 406.21323242 -61.22254883 405.95380859 -62.30712891 405.68652344 C-101.09641549 395.74833801 -135.00618495 373.48391667 -159.8046875 342.09765625 C-160.87009766 340.77507812 -160.87009766 340.77507812 -161.95703125 339.42578125 C-180.73564738 315.38371937 -204.94106739 273.63965854 -201.8046875 242.09765625 C-200.54265742 239.67158901 -199.33838547 237.71340681 -197.7421875 235.53515625 C-196.81755338 234.21234788 -195.89308454 232.88942397 -194.96875 231.56640625 C-194.20739746 230.49519531 -194.20739746 230.49519531 -193.43066406 229.40234375 C-191.07680062 226.06593671 -188.79019773 222.68496583 -186.49780273 219.30615234 C-184.58346424 216.48546665 -182.66189089 213.66983876 -180.73828125 210.85546875 C-177.51106345 206.13267195 -174.28821812 201.4069165 -171.06713867 196.67993164 C-165.29487841 188.20932076 -159.51369778 179.74488979 -153.72265625 171.28710938 C-149.53338756 165.16708971 -145.35558918 159.03930226 -141.1796875 152.91015625 C-136.9008233 146.63044664 -132.61472601 140.35601303 -128.3046875 134.09765625 C-117.8265845 118.87853264 -107.45379662 103.58740682 -97.08239746 88.29547119 C-89.94311379 77.76940277 -82.78490623 67.25637523 -75.61523438 56.75097656 C-73.13795986 53.12058019 -70.66210135 49.48921946 -68.18652344 45.85766602 C-66.94020288 44.02973997 -65.69346366 42.20209931 -64.44628906 40.37475586 C-61.21284395 35.63618872 -57.98728678 30.8925086 -54.7734375 26.140625 C-54.10892578 25.16029297 -53.44441406 24.17996094 -52.75976562 23.16992188 C-51.50076336 21.31223322 -50.24406833 19.45297774 -48.99023438 17.59179688 C-47.84086739 15.89792531 -46.67520179 14.21497917 -45.4921875 12.54443359 C-43.768342 10.11498401 -43.768342 10.11498401 -42.3046875 7.49853516 C-40.07596146 3.96809382 -38.36853707 1.45159311 -34.15939331 0.4989624 C-33.11147614 0.45257629 -32.06355896 0.40619019 -30.98388672 0.35839844 C-29.73258972 0.30247025 -28.48129272 0.24654205 -27.19207764 0.18891907 C-18.12875234 -0.03211194 -9.06535152 -0.02328452 0 0 Z " fill="#BF1E2D" transform="translate(1448.8046875,-0.09765625)"/>
</svg>
